<?xml version="1.0" encoding="utf-8"?>
<!-- Generator: Adobe Illustrator 22.0.1, SVG Export Plug-In . SVG Version: 6.00 Build 0)  -->
<svg version="1.1" id="圖層_1" xmlns="http://www.w3.org/2000/svg" xmlns:xlink="http://www.w3.org/1999/xlink" x="0px" y="0px"
	 viewBox="0 0 78.6 21.7" style="enable-background:new 0 0 78.6 21.7;" xml:space="preserve">
<style type="text/css">
	.st0{fill:#FFFFFF;}
</style>
<title>logo</title>
<g id="Layer_2">
	<g id="Layer_1-2">
		<path id="_Path_" class="st0" d="M52.5,4.5V6c0,3.6,0,7.2,0,10.8c0,0.6-0.2,0.8-0.8,0.8c-1.6,0-1.6,0-1.6-1.6V4.4
			c-0.3,0-0.4,0.2-0.5,0.3c-3.5,4-7,8.1-10.4,12.1c-0.4,0.5-1,0.8-1.6,0.7c-3.2,0-6.4,0-9.6,0c-0.6,0-0.8-0.1-0.8-0.7
			c0-5.3,0-10.7,0-16.1C27.3,0.2,27.4,0,28,0c2,0,2,0,2,2c0,4.1,0,8.2,0,12.4c0,0.6,0.1,0.8,0.8,0.8c2,0,4,0,6,0
			c0.5,0,0.9-0.2,1.2-0.5c3.9-4.6,7.8-9.1,11.7-13.8c0.6-0.7,1.5-1,2.4-0.8c0.3,0,0.5,0.3,0.6,0.5l9.8,12c0.1,0.2,0.2,0.4,0.5,0.5
			c0.1-0.3,0.1-0.5,0.1-0.8c0-3.8,0-7.5,0-11.3c0-0.7,0.1-1,0.9-0.9c1.6,0.1,1.6,0,1.6,1.6v11.7c0.5-0.5,0.8-0.9,1.2-1.3
			c3.2-3.8,6.5-7.6,9.7-11.4C76.9-0.1,77.6,0,78.3,0c0.1,0,0.2,0.1,0.2,0.1c0,0.7,0.3,1.4-0.2,2L65.5,17.1c-0.7,0.6-1.8,0.6-2.5-0.1
			L53.3,5.3l-0.7-0.8L52.5,4.5z"/>
		<g id="_Group_">
			<path id="_Path_2" class="st0" d="M8.1,5.4L3.4,3.2c-1-0.5-1.9-0.9-2.9-1.3c-0.8-0.3-0.5-1-0.5-1.5s0.6-0.3,0.9-0.3
				C4.3,0,7.7,0,11.1,0h0.1c0.6,0,1.5,0.5,1.5,0.9s-0.9,1-1.5,1H5.6L5.6,2C6.4,2.4,7.2,2.8,8,3.3c1.3,1,3.1,1,4.5,0
				c1.2-0.7,2.5-1.4,3.8-1.9c0.5-0.2,0.6-0.2,0.7,0.4c0.2,0.9-0.3,1.8-1.2,2c-1.1,0.4-2.1,1-3.3,1.6L16,7c0.8,0.4,1.2,1.3,0.9,2.2
				c-0.2,0.5-0.4,0.1-0.6,0.1c-1.5-0.7-2.9-1.4-4.4-2.1c-0.8-0.4-0.8-0.4-0.8,0.5c0,3.1,0,6.1,0,9.2c0,0.9-0.4,0.8-1,0.8s-1,0-1-0.9
				c0.1-3,0-6,0-8.9c0-0.9,0-0.9-0.8-0.5C7,8.1,5.5,8.8,4.1,9.5C3.6,9.7,3.4,9.7,3.5,9.1c0,0,0-0.1,0-0.1c-0.2-0.8,0.2-1.7,1-1.9
				c0,0,0.1,0,0.1,0C5.8,6.6,6.8,6,8.1,5.4z"/>
			<path id="_Path_3" class="st0" d="M0,10.5c0-1.9,0.1-3.9,0-5.8c0-0.6,0-0.8,0.7-0.5C1.6,4.3,2.1,5.1,2,6C1.9,9,2,12.1,2,15.2
				c-0.1,0.4,0.2,0.8,0.6,0.9c2.4,1.1,4.7,2.2,7.1,3.4c0.4,0.2,0.9,0.2,1.2,0c1.8-0.9,3.6-1.7,5.4-2.6c0.4-0.2,1-0.2,1.4,0.1
				c0.5,0.2,0.1,1.3-0.5,1.5c-1.5,0.7-3,1.4-4.5,2.1c-0.5,0.2-1,0.4-1.5,0.7c-0.6,0.4-1.4,0.4-1.9,0c-2.8-1.4-5.6-2.7-8.4-4
				C0.3,17.3,0,16.8,0,16.2C0.1,14.3,0,12.4,0,10.5z"/>
			<path id="_Path_4" class="st0" d="M20.1,10.1c0,1.8,0,3.6,0,5.4c0,0.6,0,0.8-0.8,0.5c-0.8-0.2-1.3-1-1.2-1.8
				c0.1-3.2,0.1-6.4,0-9.6c0-0.9,0.4-0.8,1-0.8s1,0,0.9,0.8C20.1,6.4,20.1,8.2,20.1,10.1z"/>
		</g>
		<path id="_Path_5" class="st0" d="M77.6,17.6c-0.7,0.2-1.1-0.2-1.4-0.7c-1.2-1.4-2.3-2.8-3.5-4.1c-0.3-0.4-0.3-0.6,0-1
			c1.2-1.4,1.2-1.4,2.4,0c1.1,1.2,2.1,2.5,3.2,3.7c0.4,0.5,0.5,1.2,0.3,1.8C78.4,17.8,77.9,17.4,77.6,17.6z"/>
		<path id="_Path_6" class="st0" d="M37.7,0c0.6-0.1,1.2,0.2,1.5,0.7c1.2,1.4,2.3,2.8,3.5,4.1c0.3,0.3,0.3,0.6,0,0.9
			c-0.1,0.1-0.1,0.1-0.2,0.2c-1.1,1.2-1.1,1.2-2.2,0S38.2,3.3,37,2c-0.4-0.5-0.5-1.2-0.2-1.7C36.8-0.2,37.4,0.2,37.7,0z"/>
	</g>
</g>
</svg>
